<svg version="1.1" id="Layer_1" xmlns="http://www.w3.org/2000/svg" xmlns:xlink="http://www.w3.org/1999/xlink" x="0px" y="0px"
	 width="100%" viewBox="0 0 512 512" enable-background="new 0 0 512 512" xml:space="preserve">
<path fill="#000000" opacity="1.000000" stroke="none" 
	d="
M249.909286,232.886887 
	C256.825745,234.260574 262.704803,232.270996 267.407471,228.109924 
	C275.198608,221.216141 283.203430,215.559540 294.222900,215.367676 
	C298.367310,215.295517 300.760651,210.924286 300.263458,206.472214 
	C299.697998,201.408310 297.494843,196.949905 295.383148,192.415543 
	C294.470245,190.455338 292.684418,187.857574 295.206299,186.101166 
	C297.817505,184.282532 300.374725,185.842590 302.264221,187.930679 
	C307.819214,194.069504 311.065216,201.356964 311.236084,209.598495 
	C311.441864,219.523972 305.164764,226.593323 294.582153,229.178146 
	C291.075287,230.034698 287.491089,230.596344 283.606781,232.905807 
	C291.811371,236.337479 299.396484,239.527298 306.995239,242.684265 
	C318.213959,247.345123 329.508362,251.830536 340.651184,256.665710 
	C357.307953,263.893555 368.795959,275.817017 373.671356,293.682220 
	C374.572357,296.983734 375.358826,300.483521 378.101288,303.595154 
	C383.326294,300.752625 388.137878,297.279907 392.723022,293.504272 
	C409.423004,279.752777 424.816467,264.854797 434.111298,244.821838 
	C440.751709,230.509949 443.298004,215.030441 446.568390,199.778030 
	C449.731720,185.024979 452.626709,170.214523 455.732330,155.448792 
	C456.194733,153.250275 456.398865,150.826614 458.768433,148.764191 
	C461.329407,153.313644 460.928406,158.257080 461.171814,162.771149 
	C462.625153,189.726334 462.963806,216.732208 462.193420,243.701782 
	C461.261078,276.341492 458.595490,308.742859 444.147064,338.952545 
	C432.968628,362.325134 419.453705,384.249176 404.550110,405.361847 
	C392.552002,422.358612 380.919250,439.724121 365.468384,453.880066 
	C339.699249,477.489532 309.363037,491.878235 274.684753,496.311432 
	C223.727386,502.825714 179.427002,487.370514 141.157578,453.892365 
	C129.841476,443.993073 121.195503,431.580444 112.351547,419.468201 
	C95.048141,395.770233 78.575340,371.539917 65.704399,345.072937 
	C56.269192,325.670990 49.859596,305.432495 47.466095,283.810547 
	C44.695320,258.780487 43.852417,233.677917 44.064384,208.586014 
	C44.218636,190.326447 44.119247,171.967407 46.625847,153.778030 
	C46.846241,152.178711 46.415169,150.352646 48.871868,149.281845 
	C51.617905,154.466415 52.104374,160.279602 53.308929,165.833710 
	C57.492180,185.122375 61.448460,204.460159 65.605606,223.754593 
	C70.677322,247.293808 83.697556,266.021576 101.136803,282.055267 
	C109.705475,289.933319 118.442703,297.574554 128.333771,303.424225 
	C130.818405,302.448425 130.923187,300.329712 131.309799,298.702789 
	C137.171951,274.034149 153.831467,260.110168 176.750214,251.814362 
	C191.448441,246.494110 205.799896,240.215195 220.296265,234.339996 
	C220.874649,234.105591 221.344406,233.603149 222.140900,233.025299 
	C219.854218,230.461914 216.754471,230.048935 214.004059,229.523529 
	C204.387360,227.686600 197.500610,222.795715 196.012466,212.768112 
	C194.486145,202.483322 198.643295,193.908630 205.945175,186.781143 
	C207.384109,185.376587 209.335526,184.917419 211.019745,185.939499 
	C213.172806,187.246124 212.509048,189.499634 211.802704,191.330154 
	C210.133041,195.657074 207.735733,199.656784 206.873138,204.349808 
	C205.597870,211.287903 208.026077,214.938614 214.873535,215.696030 
	C222.858932,216.579300 229.976608,219.246841 235.792038,225.144653 
	C239.556900,228.962845 243.955658,232.021744 249.909286,232.886887 
M180.706497,327.740021 
	C190.790466,341.179535 204.905197,343.257996 216.290665,332.972321 
	C219.575272,330.005005 221.934662,326.307678 223.368240,322.229034 
	C225.464813,316.264008 229.236526,314.096008 235.519897,314.547028 
	C242.971359,315.081879 250.420517,316.093872 257.934509,315.658295 
	C263.407959,315.341003 268.829742,314.459991 274.352844,314.575378 
	C277.749268,314.646332 279.972076,315.795685 281.579437,318.792297 
	C283.696625,322.739502 285.277802,327.006348 288.240875,330.473541 
	C293.253876,336.339539 299.468170,340.200531 307.322235,339.461090 
	C319.311951,338.332275 329.804535,327.312256 330.608490,315.660309 
	C331.442352,303.575500 326.301025,293.177277 311.693909,289.120605 
	C295.207336,284.541962 278.361755,283.430145 261.484283,282.451263 
	C247.187515,281.622009 232.919296,283.076538 218.706467,284.503021 
	C209.471664,285.429871 200.322876,287.159485 191.565857,290.433624 
	C186.319885,292.395050 181.752380,295.095001 179.195892,300.546326 
	C174.917068,309.670227 175.003372,318.474304 180.706497,327.740021 
z"/>
<path fill="#000000" opacity="1.000000" stroke="none" 
	d="
M484.545166,81.458656 
	C483.055634,82.288681 481.910980,83.059708 480.654785,83.352989 
	C470.143921,85.806953 464.689117,92.896339 462.449615,102.984726 
	C460.000732,114.016373 457.828705,125.199768 453.039703,135.472565 
	C438.813934,165.988083 415.152985,184.249069 381.474030,188.358963 
	C352.842773,191.852875 327.495361,184.018143 306.021423,164.509262 
	C301.082397,160.022217 296.820160,154.892242 293.005005,149.401443 
	C289.311768,144.086136 285.997986,138.544449 282.760406,132.769989 
	C282.458862,141.367569 282.028229,149.884186 282.785614,158.442978 
	C283.706543,168.849762 285.715546,179.171494 285.343964,189.683975 
	C285.273773,191.670029 285.596924,194.086945 282.948792,194.500305 
	C280.225037,194.925491 279.315430,192.722061 278.679199,190.549515 
	C275.686920,180.331268 274.053711,169.823608 272.787140,159.309174 
	C270.776337,142.616302 270.365540,125.813690 270.627655,108.997101 
	C270.739960,101.794319 271.260986,94.846924 275.357758,88.464729 
	C277.996429,84.354012 276.989899,80.975746 272.526184,78.998428 
	C259.896729,73.403854 247.011841,73.494514 234.362930,78.936119 
	C229.901337,80.855499 228.773865,84.732391 231.699158,88.886810 
	C235.630844,94.470482 235.101639,99.920219 233.364944,105.902481 
	C228.457443,122.807198 222.007584,139.007812 211.202118,153.067795 
	C195.295914,173.764847 174.206024,185.258942 148.250626,188.477570 
	C127.099045,191.100510 107.459908,187.118881 89.380424,176.212616 
	C66.946037,162.679276 53.578060,142.462692 47.675426,117.109177 
	C46.396049,111.613876 45.111305,106.115448 43.630863,100.672363 
	C41.333244,92.224762 36.538475,85.909401 27.576126,83.990242 
	C21.651209,82.721512 19.855122,78.773048 19.715429,73.501755 
	C19.583063,68.506935 19.545067,63.500217 19.732338,58.508739 
	C19.958023,52.493309 22.024132,49.544376 27.908442,49.037685 
	C47.887852,47.317291 66.175705,39.524281 85.089905,33.922073 
	C114.319534,25.264528 143.816025,23.549168 173.538834,31.591635 
	C188.426239,35.619907 201.425140,43.275322 213.517395,52.547028 
	C217.839493,55.860996 222.026154,56.055019 227.061859,54.714046 
	C244.246536,50.137867 261.585480,50.024967 278.769745,54.580086 
	C284.568237,56.117138 289.331757,55.763458 294.145050,51.985775 
	C310.153748,39.421387 328.183136,31.276560 348.374725,28.216066 
	C361.085541,26.289457 373.849060,26.324415 386.671814,27.119053 
	C409.908264,28.559034 431.173248,37.557987 453.109253,43.988613 
	C460.936859,46.283298 468.836639,48.044640 476.982971,48.731293 
	C483.835449,49.308884 486.295074,51.378429 486.780029,58.200432 
	C487.327423,65.900406 488.751892,73.803955 484.545166,81.458656 
M63.968594,106.860748 
	C64.229759,109.169037 64.287025,111.522072 64.782387,113.778954 
	C73.508377,153.534439 108.836586,178.493073 148.925888,172.468567 
	C188.794342,166.477264 216.326218,129.679596 210.577621,91.628021 
	C208.322235,76.698921 201.231155,64.315140 188.170181,56.620010 
	C159.113541,39.500694 128.220840,37.169491 97.119827,49.610821 
	C70.988014,60.064331 62.946510,81.640923 63.968594,106.860748 
M437.389099,128.888382 
	C443.370636,114.803177 444.600830,100.178238 441.117462,85.413918 
	C436.445007,65.609657 422.857788,53.926544 404.321594,47.308495 
	C387.761108,41.395832 370.664581,41.154354 353.585785,43.718235 
	C339.838959,45.781914 326.522339,49.928501 315.460236,58.788612 
	C298.391937,72.459366 293.006165,90.661362 296.322510,111.823662 
	C302.431854,150.808685 338.859894,178.902863 381.683868,172.197067 
	C407.457367,168.161194 425.986633,153.380051 437.389099,128.888382 
z"/>
</svg>